<svg class="bi bi-bootstrap-fill" fill="none" height="16" viewBox="0 0 16 16" width="16"
   xmlns="http://www.w3.org/2000/svg">
   <defs>
      <linearGradient id="customGradient" x1="0%" y1="0%" x2="100%" y2="0%">
         <stop offset="0%" style="stop-color: hsl(271deg 98% 53%)" />
         <stop offset="50%" style="stop-color: hsl(268deg 95% 52%)" />
         <stop offset="100%" style="stop-color: hsl(265deg 91% 51%)" />
      </linearGradient>
   </defs>

   <path
      d="M6.375 7.125V4.658h1.78c.973 0 1.542.457 1.542 1.237 0 .802-.604 1.23-1.764 1.23H6.375zm0 3.762h1.898c1.184 0 1.81-.48 1.81-1.377 0-.885-.65-1.348-1.886-1.348H6.375v2.725z"
      fill="url(#customGradient)" />
   <path
      d="M4.002 0a4 4 0 0 0-4 4v8a4 4 0 0 0 4 4h8a4 4 0 0 0 4-4V4a4 4 0 0 0-4-4h-8zm1.06 12V3.545h3.399c1.587 0 2.543.809 2.543 2.11 0 .884-.65 1.675-1.483 1.816v.1c1.143.117 1.904.931 1.904 2.033 0 1.488-1.084 2.396-2.888 2.396H5.062z"
      fill="url(#customGradient)" />
</svg>