<svg width="100" height="100" viewBox="0 0 100 100" fill="none" xmlns="http://www.w3.org/2000/svg">
<path d="M50 8.3335C27.0251 8.3335 8.33334 27.0253 8.33334 50.0002C8.33334 72.975 27.0251 91.6668 50 91.6668C72.9749 91.6668 91.6667 72.975 91.6667 50.0002C91.6667 27.0253 72.9749 8.3335 50 8.3335ZM50 14.5835C69.5971 14.5835 85.4167 30.4031 85.4167 50.0002C85.4167 65.9697 74.9103 79.4221 60.4167 83.8584V73.2017C60.4167 69.2223 58.1236 65.8098 54.8096 64.1115C58.0319 63.495 61.0239 62.2726 63.5374 60.5458C66.0509 58.8189 68.0133 56.6373 69.2617 54.1822C70.5102 51.7271 71.0087 49.0691 70.7159 46.4289C70.4231 43.7888 69.3474 41.2426 67.5781 39.0016C68.5022 36.1573 69.5344 31.1682 67.0817 27.2422C62.3528 27.2422 59.3014 30.4837 57.8451 32.4993C55.3554 31.6815 52.6913 31.2573 50 31.2502C47.3069 31.2525 44.64 31.6726 42.1468 32.4871C40.6869 30.4705 37.638 27.2422 32.9183 27.2422C30.1036 31.7477 31.8436 36.593 32.7759 38.5703C30.887 40.8016 29.7026 43.366 29.3242 46.0438C28.9458 48.7216 29.3847 51.4328 30.6033 53.9451C31.8218 56.4575 33.7837 58.6959 36.3207 60.4687C38.8578 62.2414 41.8943 63.4956 45.1701 64.1237C42.449 65.5262 40.411 68.0711 39.7868 71.159H37.0483C34.3463 71.159 33.2964 70.0611 31.8359 68.209C30.3943 66.3569 28.8441 65.1124 26.9816 64.5957C25.9775 64.4895 25.301 65.2533 26.176 65.9303C29.1322 67.9428 29.3362 71.2367 30.5217 73.3929C31.6008 75.3346 33.8119 77.0835 36.3119 77.0835H39.5833V83.8584C25.0897 79.4221 14.5833 65.9697 14.5833 50.0002C14.5833 30.4031 30.4029 14.5835 50 14.5835Z" fill="white"/>
</svg>
