<svg width="100" height="100" viewBox="0 0 100 100" fill="none" xmlns="http://www.w3.org/2000/svg">
<path d="M80 13.3335H20C16.3167 13.3335 13.3333 16.3168 13.3333 20.0002V80.0002C13.3333 83.6835 16.3167 86.6668 20 86.6668H80C83.6833 86.6668 86.6667 83.6835 86.6667 80.0002V20.0002C86.6667 16.3168 83.6833 13.3335 80 13.3335ZM36.5133 73.3335H26.68V41.6935H36.5133V73.3335ZM31.4967 37.1702C28.3267 37.1702 25.7633 34.6002 25.7633 31.4368C25.7633 28.2735 28.33 25.7068 31.4967 25.7068C34.6567 25.7068 37.2267 28.2768 37.2267 31.4368C37.2267 34.6002 34.6567 37.1702 31.4967 37.1702ZM73.3467 73.3335H63.52V57.9468C63.52 54.2768 63.4533 49.5568 58.41 49.5568C53.2933 49.5568 52.5067 53.5535 52.5067 57.6802V73.3335H42.68V41.6935H52.1133V46.0168H52.2467C53.56 43.5302 56.7667 40.9068 61.55 40.9068C71.5067 40.9068 73.3467 47.4602 73.3467 55.9802V73.3335Z" fill="white"/>
</svg>
